<mxfile host="app.diagrams.net" modified="2023-11-28T06:49:12.849Z" agent="Mozilla/5.0 (Macintosh; Intel Mac OS X 10_15_7) AppleWebKit/537.36 (KHTML, like Gecko) Chrome/116.0.0.0 Safari/537.36" version="22.1.4" etag="HxfNovO35b_dMR-4mFIU" type="github">
  <diagram name="第 1 页" id="GmfMC1KCKteFpatOt5Lh">
    <mxGraphModel>
      <root>
        <mxCell id="0" />
        <mxCell id="1" parent="0" />
      </root>
    </mxGraphModel>
  </diagram>
</mxfile>
